<?xml version="1.0" encoding="utf-8"?>
<!DOCTYPE svg PUBLIC "-//W3C//DTD SVG 1.1//EN" "http://www.w3.org/Graphics/SVG/1.1/DTD/svg11.dtd">
<svg version="1.1" xmlns="http://www.w3.org/2000/svg" xmlns:xlink="http://www.w3.org/1999/xlink" x="0px" y="0px" viewBox="0 0 1000 1000" enable-background="new 0 0 1000 1000" xml:space="preserve">
<path fill="#ff5e00" d="M846.7,153.7c-191.2-191.5-501.5-191.7-693-0.4c-191.5,191.2-191.7,501.5-0.4,693c191.2,191.5,501.5,191.7,693,0.4C1037.7,655.5,1037.9,345.2,846.7,153.7z M568.4,810.9c0,7.6-6.1,13.7-13.7,13.7H445.3c-7.6,0-13.7-6.1-13.7-13.7V404.6c0-7.6,6.1-13.7,13.7-13.7h109.5c7.6,0,13.7,6.1,13.7,13.7V810.9z M500,334.1c-43.8,0-79.4-35.6-79.4-79.4c0-43.8,35.6-79.4,79.4-79.4c43.8,0,79.4,35.6,79.4,79.4C579.4,298.5,543.8,334.1,500,334.1z"/>
</svg>
